<svg preserveAspectRatio="none" width="100%" height="100%" overflow="visible" style="display: block;" viewBox="0 0 60 60" fill="none" xmlns="http://www.w3.org/2000/svg">
<g id="Group 1597884014">
<circle id="Ellipse 2" cx="30" cy="30" r="30" fill="var(--fill-0, #FCC614)"/>
<g id="material-symbols:air-rounded">
<path id="Vector" d="M29.375 40C28.7083 40 28.0888 39.8333 27.5163 39.5C26.9438 39.1667 26.48 38.7083 26.125 38.125C25.8958 37.7083 25.8908 37.2917 26.11 36.875C26.3292 36.4583 26.6675 36.25 27.125 36.25C27.3958 36.25 27.6354 36.3333 27.8438 36.5C28.0521 36.6667 28.2396 36.8542 28.4063 37.0625C28.5104 37.2083 28.6513 37.3179 28.8288 37.3913C29.0063 37.4646 29.1883 37.5008 29.375 37.5C29.7292 37.5 30.0263 37.38 30.2663 37.14C30.5063 36.9 30.6258 36.6033 30.625 36.25C30.6242 35.8967 30.5042 35.6 30.265 35.36C30.0258 35.12 29.7292 35 29.375 35H18.75C18.3958 35 18.0992 34.88 17.86 34.64C17.6208 34.4 17.5008 34.1033 17.5 33.75C17.4992 33.3967 17.6192 33.1 17.86 32.86C18.1008 32.62 18.3975 32.5 18.75 32.5H29.375C30.4167 32.5 31.3021 32.8646 32.0313 33.5938C32.7604 34.3229 33.125 35.2083 33.125 36.25C33.125 37.2917 32.7604 38.1771 32.0313 38.9062C31.3021 39.6354 30.4167 40 29.375 40ZM18.75 27.5C18.3958 27.5 18.0992 27.38 17.86 27.14C17.6208 26.9 17.5008 26.6033 17.5 26.25C17.4992 25.8967 17.6192 25.6 17.86 25.36C18.1008 25.12 18.3975 25 18.75 25H34.375C34.8958 25 35.3388 24.8179 35.7038 24.4538C36.0688 24.0896 36.2508 23.6467 36.25 23.125C36.2492 22.6033 36.0671 22.1608 35.7038 21.7975C35.3404 21.4342 34.8975 21.2517 34.375 21.25C34.0417 21.25 33.7292 21.3283 33.4375 21.485C33.1458 21.6417 32.9167 21.8654 32.75 22.1562C32.6042 22.4062 32.4271 22.6304 32.2188 22.8288C32.0104 23.0271 31.7604 23.1258 31.4688 23.125C31.0521 23.125 30.7138 22.9688 30.4538 22.6562C30.1938 22.3438 30.1258 22.0104 30.25 21.6562C30.5417 20.7812 31.0679 20.0783 31.8288 19.5475C32.5896 19.0167 33.4383 18.7508 34.375 18.75C35.5833 18.75 36.6146 19.1771 37.4688 20.0313C38.3229 20.8854 38.75 21.9167 38.75 23.125C38.75 24.3333 38.3229 25.3646 37.4688 26.2188C36.6146 27.0729 35.5833 27.5 34.375 27.5H18.75ZM39.9375 37.125C39.5208 37.3125 39.1146 37.2867 38.7188 37.0475C38.3229 36.8083 38.125 36.4592 38.125 36C38.125 35.7083 38.2242 35.4637 38.4225 35.2662C38.6208 35.0687 38.8446 34.8967 39.0938 34.75C39.3854 34.5833 39.6096 34.3542 39.7663 34.0625C39.9229 33.7708 40.0008 33.4583 40 33.125C40 32.6042 39.8179 32.1617 39.4538 31.7975C39.0896 31.4333 38.6467 31.2508 38.125 31.25H18.75C18.3958 31.25 18.0992 31.13 17.86 30.89C17.6208 30.65 17.5008 30.3533 17.5 30C17.4992 29.6467 17.6192 29.35 17.86 29.11C18.1008 28.87 18.3975 28.75 18.75 28.75H38.125C39.3333 28.75 40.3646 29.1771 41.2188 30.0312C42.0729 30.8854 42.5 31.9167 42.5 33.125C42.5 34 42.2708 34.7971 41.8125 35.5163C41.3542 36.2354 40.7292 36.7717 39.9375 37.125Z" fill="var(--fill-0, #152C45)"/>
</g>
</g>
</svg>
