<svg preserveAspectRatio="none" width="100%" height="100%" overflow="visible" style="display: block;" viewBox="0 0 22 24.5" fill="none" xmlns="http://www.w3.org/2000/svg">
<g id="Group">
<path id="Vector" d="M6 1H16C16.663 1 17.2989 1.26339 17.7678 1.73223C18.2366 2.20107 18.5 2.83696 18.5 3.5V5.775C18.5001 6.74527 18.726 7.70219 19.16 8.57L20.34 10.93C20.774 11.7978 20.9999 12.7547 21 13.725V21C21 21.663 20.7366 22.2989 20.2678 22.7678C19.7989 23.2366 19.163 23.5 18.5 23.5H3.5C2.83696 23.5 2.20107 23.2366 1.73223 22.7678C1.26339 22.2989 1 21.663 1 21V13.725C1.00007 12.7547 1.22603 11.7978 1.66 10.93L3.5 7.25V3.5C3.5 2.83696 3.76339 2.20107 4.23223 1.73223C4.70107 1.26339 5.33696 1 6 1Z" stroke="var(--stroke-0, #152C45)" stroke-width="2" stroke-linecap="round" stroke-linejoin="round"/>
<path id="Vector_2" d="M3.5 23.5C4.16304 23.5 4.79893 23.2366 5.26777 22.7678C5.73661 22.2989 6 21.663 6 21V13.725C5.99993 12.7547 5.77397 11.7978 5.34 10.93L3.5 7.25M9.75 6H12.25M11 16C11 16.663 11.2634 17.2989 11.7322 17.7678C12.2011 18.2366 12.837 18.5 13.5 18.5C14.163 18.5 14.7989 18.2366 15.2678 17.7678C15.7366 17.2989 16 16.663 16 16C16 15.337 15.7366 14.7011 15.2678 14.2322C14.7989 13.7634 14.163 13.5 13.5 13.5C12.837 13.5 12.2011 13.7634 11.7322 14.2322C11.2634 14.7011 11 15.337 11 16Z" stroke="var(--stroke-0, #152C45)" stroke-width="2" stroke-linecap="round" stroke-linejoin="round"/>
</g>
</svg>
