<svg preserveAspectRatio="none" width="100%" height="100%" overflow="visible" style="display: block;" viewBox="0 0 60 60" fill="none" xmlns="http://www.w3.org/2000/svg">
<g id="Group 1597884014">
<circle id="Ellipse 2" cx="30" cy="30" r="30" fill="var(--fill-0, #FCC614)"/>
<g id="ph:drop-bold">
<path id="Vector" d="M30.8063 15.723C30.5699 15.5577 30.2884 15.469 30 15.469C29.7116 15.469 29.4301 15.5577 29.1938 15.723C27.3817 17.0585 25.7239 18.5913 24.2508 20.2934C20.959 24.0738 19.2188 28.0805 19.2188 31.875C19.2188 34.7344 20.3546 37.4766 22.3765 39.4985C24.3984 41.5204 27.1406 42.6563 30 42.6563C32.8594 42.6563 35.6016 41.5204 37.6235 39.4985C39.6454 37.4766 40.7812 34.7344 40.7812 31.875C40.7812 22.8094 31.2141 16.0078 30.8063 15.723ZM30 39.8438C27.8872 39.8416 25.8616 39.0013 24.3676 37.5074C22.8737 36.0134 22.0334 33.9878 22.0312 31.875C22.0312 27.9715 24.375 24.4488 26.332 22.1824C27.4494 20.899 28.6767 19.7156 30 18.6457C31.3233 19.7156 32.5506 20.899 33.668 22.1824C35.625 24.4488 37.9688 27.9715 37.9688 31.875C37.9666 33.9878 37.1263 36.0134 35.6324 37.5074C34.1384 39.0013 32.1128 39.8416 30 39.8438ZM35.8148 33.7031C35.5205 34.6389 35.0045 35.4898 34.3108 36.1835C33.6172 36.8772 32.7663 37.3931 31.8305 37.6875C31.6939 37.73 31.5517 37.7517 31.4086 37.752C31.0724 37.7522 30.7473 37.632 30.4921 37.4132C30.237 37.1944 30.0686 36.8914 30.0176 36.5591C29.9666 36.2268 30.0363 35.8873 30.2141 35.602C30.3919 35.3167 30.666 35.1045 30.9867 35.0039C31.491 34.8455 31.9496 34.5675 32.3234 34.1937C32.6972 33.8199 32.9751 33.3614 33.1336 32.857C33.189 32.6808 33.2786 32.5173 33.3972 32.3757C33.5158 32.2341 33.6611 32.1172 33.8249 32.0318C34.1557 31.8593 34.5414 31.8252 34.8973 31.9371C35.0735 31.9925 35.237 32.0821 35.3786 32.2007C35.5202 32.3193 35.6371 32.4647 35.7225 32.6284C35.8079 32.7922 35.8602 32.9712 35.8765 33.1552C35.8927 33.3392 35.8726 33.5246 35.8172 33.7008L35.8148 33.7031Z" fill="var(--fill-0, #152C45)"/>
</g>
</g>
</svg>
